<?xml version="1.0" standalone="no"?>
<!DOCTYPE svg PUBLIC "-//W3C//DTD SVG 1.1//EN" "http://www.w3.org/Graphics/SVG/1.1/DTD/svg11.dtd">
<svg version="1.1" width="1200" height="518" onload="init(evt)" viewBox="0 0 1200 518" xmlns="http://www.w3.org/2000/svg" xmlns:xlink="http://www.w3.org/1999/xlink">
<!-- Flame graph stack visualization. See https://github.com/brendangregg/FlameGraph for latest version, and http://www.brendangregg.com/flamegraphs.html for examples. -->
<!-- NOTES:  -->
<defs>
	<linearGradient id="background" y1="0" y2="1" x1="0" x2="0" >
		<stop stop-color="#eeeeee" offset="5%" />
		<stop stop-color="#eeeeb0" offset="95%" />
	</linearGradient>
</defs>
<style type="text/css">
	text { font-family:Verdana; font-size:12px; fill:rgb(0,0,0); }
	#search, #ignorecase { opacity:0.1; cursor:pointer; }
	#search:hover, #search.show, #ignorecase:hover, #ignorecase.show { opacity:1; }
	#subtitle { text-anchor:middle; font-color:rgb(160,160,160); }
	#title { text-anchor:middle; font-size:17px}
	#unzoom { cursor:pointer; }
	#frames > *:hover { stroke:black; stroke-width:0.5; cursor:pointer; }
	.hide { display:none; }
	.parent { opacity:0.5; }
</style>
<script type="text/ecmascript">
<![CDATA[
	"use strict";
	var details, searchbtn, unzoombtn, matchedtxt, svg, searching, currentSearchTerm, ignorecase, ignorecaseBtn;
	function init(evt) {
		details = document.getElementById("details").firstChild;
		searchbtn = document.getElementById("search");
		ignorecaseBtn = document.getElementById("ignorecase");
		unzoombtn = document.getElementById("unzoom");
		matchedtxt = document.getElementById("matched");
		svg = document.getElementsByTagName("svg")[0];
		searching = 0;
		currentSearchTerm = null;

		// use GET parameters to restore a flamegraphs state.
		var params = get_params();
		if (params.x && params.y)
			zoom(find_group(document.querySelector('[x="' + params.x + '"][y="' + params.y + '"]')));
                if (params.s) search(params.s);
	}

	// event listeners
	window.addEventListener("click", function(e) {
		var target = find_group(e.target);
		if (target) {
			if (target.nodeName == "a") {
				if (e.ctrlKey === false) return;
				e.preventDefault();
			}
			if (target.classList.contains("parent")) unzoom(true);
			zoom(target);
			if (!document.querySelector('.parent')) {
				// we have basically done a clearzoom so clear the url
				var params = get_params();
				if (params.x) delete params.x;
				if (params.y) delete params.y;
				history.replaceState(null, null, parse_params(params));
				unzoombtn.classList.add("hide");
				return;
			}

			// set parameters for zoom state
			var el = target.querySelector("rect");
			if (el && el.attributes && el.attributes.y && el.attributes._orig_x) {
				var params = get_params()
				params.x = el.attributes._orig_x.value;
				params.y = el.attributes.y.value;
				history.replaceState(null, null, parse_params(params));
			}
		}
		else if (e.target.id == "unzoom") clearzoom();
		else if (e.target.id == "search") search_prompt();
		else if (e.target.id == "ignorecase") toggle_ignorecase();
	}, false)

	// mouse-over for info
	// show
	window.addEventListener("mouseover", function(e) {
		var target = find_group(e.target);
		if (target) details.nodeValue = "Function: " + g_to_text(target);
	}, false)

	// clear
	window.addEventListener("mouseout", function(e) {
		var target = find_group(e.target);
		if (target) details.nodeValue = ' ';
	}, false)

	// ctrl-F for search
	// ctrl-I to toggle case-sensitive search
	window.addEventListener("keydown",function (e) {
		if (e.keyCode === 114 || (e.ctrlKey && e.keyCode === 70)) {
			e.preventDefault();
			search_prompt();
		}
		else if (e.ctrlKey && e.keyCode === 73) {
			e.preventDefault();
			toggle_ignorecase();
		}
	}, false)

	// functions
	function get_params() {
		var params = {};
		var paramsarr = window.location.search.substr(1).split('&');
		for (var i = 0; i < paramsarr.length; ++i) {
			var tmp = paramsarr[i].split("=");
			if (!tmp[0] || !tmp[1]) continue;
			params[tmp[0]]  = decodeURIComponent(tmp[1]);
		}
		return params;
	}
	function parse_params(params) {
		var uri = "?";
		for (var key in params) {
			uri += key + '=' + encodeURIComponent(params[key]) + '&';
		}
		if (uri.slice(-1) == "&")
			uri = uri.substring(0, uri.length - 1);
		if (uri == '?')
			uri = window.location.href.split('?')[0];
		return uri;
	}
	function find_child(node, selector) {
		var children = node.querySelectorAll(selector);
		if (children.length) return children[0];
	}
	function find_group(node) {
		var parent = node.parentElement;
		if (!parent) return;
		if (parent.id == "frames") return node;
		return find_group(parent);
	}
	function orig_save(e, attr, val) {
		if (e.attributes["_orig_" + attr] != undefined) return;
		if (e.attributes[attr] == undefined) return;
		if (val == undefined) val = e.attributes[attr].value;
		e.setAttribute("_orig_" + attr, val);
	}
	function orig_load(e, attr) {
		if (e.attributes["_orig_"+attr] == undefined) return;
		e.attributes[attr].value = e.attributes["_orig_" + attr].value;
		e.removeAttribute("_orig_"+attr);
	}
	function g_to_text(e) {
		var text = find_child(e, "title").firstChild.nodeValue;
		return (text)
	}
	function g_to_func(e) {
		var func = g_to_text(e);
		// if there's any manipulation we want to do to the function
		// name before it's searched, do it here before returning.
		return (func);
	}
	function update_text(e) {
		var r = find_child(e, "rect");
		var t = find_child(e, "text");
		var w = parseFloat(r.attributes.width.value) -3;
		var txt = find_child(e, "title").textContent.replace(/\([^(]*\)$/,"");
		t.attributes.x.value = parseFloat(r.attributes.x.value) + 3;

		// Smaller than this size won't fit anything
		if (w < 2 * 12 * 0.59) {
			t.textContent = "";
			return;
		}

		t.textContent = txt;
		var sl = t.getSubStringLength(0, txt.length);
		// check if only whitespace or if we can fit the entire string into width w
		if (/^ *$/.test(txt) || sl < w)
			return;

		// this isn't perfect, but gives a good starting point
		// and avoids calling getSubStringLength too often
		var start = Math.floor((w/sl) * txt.length);
		for (var x = start; x > 0; x = x-2) {
			if (t.getSubStringLength(0, x + 2) <= w) {
				t.textContent = txt.substring(0, x) + "..";
				return;
			}
		}
		t.textContent = "";
	}

	// zoom
	function zoom_reset(e) {
		if (e.attributes != undefined) {
			orig_load(e, "x");
			orig_load(e, "width");
		}
		if (e.childNodes == undefined) return;
		for (var i = 0, c = e.childNodes; i < c.length; i++) {
			zoom_reset(c[i]);
		}
	}
	function zoom_child(e, x, ratio) {
		if (e.attributes != undefined) {
			if (e.attributes.x != undefined) {
				orig_save(e, "x");
				e.attributes.x.value = (parseFloat(e.attributes.x.value) - x - 10) * ratio + 10;
				if (e.tagName == "text")
					e.attributes.x.value = find_child(e.parentNode, "rect[x]").attributes.x.value + 3;
			}
			if (e.attributes.width != undefined) {
				orig_save(e, "width");
				e.attributes.width.value = parseFloat(e.attributes.width.value) * ratio;
			}
		}

		if (e.childNodes == undefined) return;
		for (var i = 0, c = e.childNodes; i < c.length; i++) {
			zoom_child(c[i], x - 10, ratio);
		}
	}
	function zoom_parent(e) {
		if (e.attributes) {
			if (e.attributes.x != undefined) {
				orig_save(e, "x");
				e.attributes.x.value = 10;
			}
			if (e.attributes.width != undefined) {
				orig_save(e, "width");
				e.attributes.width.value = parseInt(svg.width.baseVal.value) - (10 * 2);
			}
		}
		if (e.childNodes == undefined) return;
		for (var i = 0, c = e.childNodes; i < c.length; i++) {
			zoom_parent(c[i]);
		}
	}
	function zoom(node) {
		var attr = find_child(node, "rect").attributes;
		var width = parseFloat(attr.width.value);
		var xmin = parseFloat(attr.x.value);
		var xmax = parseFloat(xmin + width);
		var ymin = parseFloat(attr.y.value);
		var ratio = (svg.width.baseVal.value - 2 * 10) / width;

		// XXX: Workaround for JavaScript float issues (fix me)
		var fudge = 0.0001;

		unzoombtn.classList.remove("hide");

		var el = document.getElementById("frames").children;
		for (var i = 0; i < el.length; i++) {
			var e = el[i];
			var a = find_child(e, "rect").attributes;
			var ex = parseFloat(a.x.value);
			var ew = parseFloat(a.width.value);
			var upstack;
			// Is it an ancestor
			if (0 == 0) {
				upstack = parseFloat(a.y.value) > ymin;
			} else {
				upstack = parseFloat(a.y.value) < ymin;
			}
			if (upstack) {
				// Direct ancestor
				if (ex <= xmin && (ex+ew+fudge) >= xmax) {
					e.classList.add("parent");
					zoom_parent(e);
					update_text(e);
				}
				// not in current path
				else
					e.classList.add("hide");
			}
			// Children maybe
			else {
				// no common path
				if (ex < xmin || ex + fudge >= xmax) {
					e.classList.add("hide");
				}
				else {
					zoom_child(e, xmin, ratio);
					update_text(e);
				}
			}
		}
		search();
	}
	function unzoom(dont_update_text) {
		unzoombtn.classList.add("hide");
		var el = document.getElementById("frames").children;
		for(var i = 0; i < el.length; i++) {
			el[i].classList.remove("parent");
			el[i].classList.remove("hide");
			zoom_reset(el[i]);
			if(!dont_update_text) update_text(el[i]);
		}
		search();
	}
	function clearzoom() {
		unzoom();

		// remove zoom state
		var params = get_params();
		if (params.x) delete params.x;
		if (params.y) delete params.y;
		history.replaceState(null, null, parse_params(params));
	}

	// search
	function toggle_ignorecase() {
		ignorecase = !ignorecase;
		if (ignorecase) {
			ignorecaseBtn.classList.add("show");
		} else {
			ignorecaseBtn.classList.remove("show");
		}
		reset_search();
		search();
	}
	function reset_search() {
		var el = document.querySelectorAll("#frames rect");
		for (var i = 0; i < el.length; i++) {
			orig_load(el[i], "fill")
		}
		var params = get_params();
		delete params.s;
		history.replaceState(null, null, parse_params(params));
	}
	function search_prompt() {
		if (!searching) {
			var term = prompt("Enter a search term (regexp " +
			    "allowed, eg: ^ext4_)"
			    + (ignorecase ? ", ignoring case" : "")
			    + "\nPress Ctrl-i to toggle case sensitivity", "");
			if (term != null) search(term);
		} else {
			reset_search();
			searching = 0;
			currentSearchTerm = null;
			searchbtn.classList.remove("show");
			searchbtn.firstChild.nodeValue = "Search"
			matchedtxt.classList.add("hide");
			matchedtxt.firstChild.nodeValue = ""
		}
	}
	function search(term) {
		if (term) currentSearchTerm = term;
		if (currentSearchTerm === null) return;

		var re = new RegExp(currentSearchTerm, ignorecase ? 'i' : '');
		var el = document.getElementById("frames").children;
		var matches = new Object();
		var maxwidth = 0;
		for (var i = 0; i < el.length; i++) {
			var e = el[i];
			var func = g_to_func(e);
			var rect = find_child(e, "rect");
			if (func == null || rect == null)
				continue;

			// Save max width. Only works as we have a root frame
			var w = parseFloat(rect.attributes.width.value);
			if (w > maxwidth)
				maxwidth = w;

			if (func.match(re)) {
				// highlight
				var x = parseFloat(rect.attributes.x.value);
				orig_save(rect, "fill");
				rect.attributes.fill.value = "rgb(230,0,230)";

				// remember matches
				if (matches[x] == undefined) {
					matches[x] = w;
				} else {
					if (w > matches[x]) {
						// overwrite with parent
						matches[x] = w;
					}
				}
				searching = 1;
			}
		}
		if (!searching)
			return;
		var params = get_params();
		params.s = currentSearchTerm;
		history.replaceState(null, null, parse_params(params));

		searchbtn.classList.add("show");
		searchbtn.firstChild.nodeValue = "Reset Search";

		// calculate percent matched, excluding vertical overlap
		var count = 0;
		var lastx = -1;
		var lastw = 0;
		var keys = Array();
		for (k in matches) {
			if (matches.hasOwnProperty(k))
				keys.push(k);
		}
		// sort the matched frames by their x location
		// ascending, then width descending
		keys.sort(function(a, b){
			return a - b;
		});
		// Step through frames saving only the biggest bottom-up frames
		// thanks to the sort order. This relies on the tree property
		// where children are always smaller than their parents.
		var fudge = 0.0001;	// JavaScript floating point
		for (var k in keys) {
			var x = parseFloat(keys[k]);
			var w = matches[keys[k]];
			if (x >= lastx + lastw - fudge) {
				count += w;
				lastx = x;
				lastw = w;
			}
		}
		// display matched percent
		matchedtxt.classList.remove("hide");
		var pct = 100 * count / maxwidth;
		if (pct != 100) pct = pct.toFixed(1)
		matchedtxt.firstChild.nodeValue = "Matched: " + pct + "%";
	}
]]>
</script>
<rect x="0.0" y="0" width="1200.0" height="518.0" fill="url(#background)"  />
<text id="title" x="600.00" y="24" >Flame Graph</text>
<text id="details" x="10.00" y="501" > </text>
<text id="unzoom" x="10.00" y="24" class="hide">Reset Zoom</text>
<text id="search" x="1090.00" y="24" >Search</text>
<text id="ignorecase" x="1174.00" y="24" >ic</text>
<text id="matched" x="1090.00" y="501" > </text>
<g id="frames">
<g >
<title>__schedule (77,342 samples, 0.67%)</title><rect x="1182.0" y="85" width="8.0" height="15.0" fill="rgb(227,103,24)" rx="2" ry="2" />
<text  x="1185.04" y="95.5" ></text>
</g>
<g >
<title>do_user_addr_fault (10,968,267 samples, 95.65%)</title><rect x="20.6" y="325" width="1128.7" height="15.0" fill="rgb(228,108,25)" rx="2" ry="2" />
<text  x="23.59" y="335.5" >do_user_addr_fault</text>
</g>
<g >
<title>[unknown] (1,040 samples, 0.01%)</title><rect x="10.0" y="437" width="0.1" height="15.0" fill="rgb(210,24,5)" rx="2" ry="2" />
<text  x="13.00" y="447.5" ></text>
</g>
<g >
<title>server (11,465,792 samples, 99.99%)</title><rect x="10.1" y="453" width="1179.9" height="15.0" fill="rgb(230,117,28)" rx="2" ry="2" />
<text  x="13.11" y="463.5" >server</text>
</g>
<g >
<title>___interceptor_memcpy (92,696 samples, 0.81%)</title><rect x="1172.5" y="341" width="9.5" height="15.0" fill="rgb(207,13,3)" rx="2" ry="2" />
<text  x="1175.50" y="351.5" ></text>
</g>
<g >
<title>__send (137,878 samples, 1.20%)</title><rect x="1158.3" y="309" width="14.2" height="15.0" fill="rgb(234,134,32)" rx="2" ry="2" />
<text  x="1161.31" y="319.5" ></text>
</g>
<g >
<title>do_syscall_64 (101,829 samples, 0.89%)</title><rect x="10.1" y="405" width="10.5" height="15.0" fill="rgb(209,20,4)" rx="2" ry="2" />
<text  x="13.11" y="415.5" ></text>
</g>
<g >
<title>sysvec_apic_timer_interrupt (83,429 samples, 0.73%)</title><rect x="1149.3" y="293" width="8.6" height="15.0" fill="rgb(220,69,16)" rx="2" ry="2" />
<text  x="1152.28" y="303.5" ></text>
</g>
<g >
<title>do_epoll_wait (4,351 samples, 0.04%)</title><rect x="1157.9" y="261" width="0.4" height="15.0" fill="rgb(211,31,7)" rx="2" ry="2" />
<text  x="1160.87" y="271.5" ></text>
</g>
<g >
<title>__x64_sys_execve (101,829 samples, 0.89%)</title><rect x="10.1" y="389" width="10.5" height="15.0" fill="rgb(247,193,46)" rx="2" ry="2" />
<text  x="13.11" y="399.5" ></text>
</g>
<g >
<title>_IO_fwrite (77,342 samples, 0.67%)</title><rect x="1182.0" y="277" width="8.0" height="15.0" fill="rgb(210,23,5)" rx="2" ry="2" />
<text  x="1185.04" y="287.5" ></text>
</g>
<g >
<title>__tcp_push_pending_frames (73,024 samples, 0.64%)</title><rect x="1158.3" y="165" width="7.5" height="15.0" fill="rgb(230,117,28)" rx="2" ry="2" />
<text  x="1161.31" y="175.5" ></text>
</g>
<g >
<title>ip_finish_output2 (73,024 samples, 0.64%)</title><rect x="1158.3" y="101" width="7.5" height="15.0" fill="rgb(219,67,16)" rx="2" ry="2" />
<text  x="1161.31" y="111.5" ></text>
</g>
<g >
<title>perf_event_groups_next (1,718 samples, 0.01%)</title><rect x="1158.1" y="133" width="0.2" height="15.0" fill="rgb(245,186,44)" rx="2" ry="2" />
<text  x="1161.14" y="143.5" ></text>
</g>
<g >
<title>do_softirq.part.0 (73,024 samples, 0.64%)</title><rect x="1158.3" y="53" width="7.5" height="15.0" fill="rgb(233,131,31)" rx="2" ry="2" />
<text  x="1161.31" y="63.5" ></text>
</g>
<g >
<title>___interceptor_fwrite (77,342 samples, 0.67%)</title><rect x="1182.0" y="293" width="8.0" height="15.0" fill="rgb(219,65,15)" rx="2" ry="2" />
<text  x="1185.04" y="303.5" ></text>
</g>
<g >
<title>__alloc_pages_noprof (10,968,267 samples, 95.65%)</title><rect x="20.6" y="213" width="1128.7" height="15.0" fill="rgb(205,4,1)" rx="2" ry="2" />
<text  x="23.59" y="223.5" >__alloc_pages_noprof</text>
</g>
<g >
<title>begin_new_exec (1,040 samples, 0.01%)</title><rect x="10.0" y="325" width="0.1" height="15.0" fill="rgb(245,184,44)" rx="2" ry="2" />
<text  x="13.00" y="335.5" ></text>
</g>
<g >
<title>schedule_hrtimeout_range_clock (4,351 samples, 0.04%)</title><rect x="1157.9" y="245" width="0.4" height="15.0" fill="rgb(222,81,19)" rx="2" ry="2" />
<text  x="1160.87" y="255.5" ></text>
</g>
<g >
<title>alloc_pages_mpol_noprof (10,968,267 samples, 95.65%)</title><rect x="20.6" y="229" width="1128.7" height="15.0" fill="rgb(227,102,24)" rx="2" ry="2" />
<text  x="23.59" y="239.5" >alloc_pages_mpol_noprof</text>
</g>
<g >
<title>visit_groups_merge.constprop.0.isra.0 (4,351 samples, 0.04%)</title><rect x="1157.9" y="149" width="0.4" height="15.0" fill="rgb(220,70,16)" rx="2" ry="2" />
<text  x="1160.87" y="159.5" ></text>
</g>
<g >
<title>do_execveat_common.isra.0 (1,040 samples, 0.01%)</title><rect x="10.0" y="373" width="0.1" height="15.0" fill="rgb(231,123,29)" rx="2" ry="2" />
<text  x="13.00" y="383.5" ></text>
</g>
<g >
<title>irqtime_account_irq (83,429 samples, 0.73%)</title><rect x="1149.3" y="245" width="8.6" height="15.0" fill="rgb(224,88,21)" rx="2" ry="2" />
<text  x="1152.28" y="255.5" ></text>
</g>
<g >
<title>put_prev_entity (77,342 samples, 0.67%)</title><rect x="1182.0" y="37" width="8.0" height="15.0" fill="rgb(211,28,6)" rx="2" ry="2" />
<text  x="1185.04" y="47.5" ></text>
</g>
<g >
<title>main (11,363,963 samples, 99.10%)</title><rect x="20.6" y="389" width="1169.4" height="15.0" fill="rgb(243,179,42)" rx="2" ry="2" />
<text  x="23.59" y="399.5" >main</text>
</g>
<g >
<title>[libc.so.6] (77,342 samples, 0.67%)</title><rect x="1182.0" y="181" width="8.0" height="15.0" fill="rgb(223,84,20)" rx="2" ry="2" />
<text  x="1185.04" y="191.5" ></text>
</g>
<g >
<title>[libc.so.6] (87,780 samples, 0.77%)</title><rect x="1149.3" y="325" width="9.0" height="15.0" fill="rgb(223,84,20)" rx="2" ry="2" />
<text  x="1152.28" y="335.5" ></text>
</g>
<g >
<title>spdlog::logger::sink_it_ (77,342 samples, 0.67%)</title><rect x="1182.0" y="325" width="8.0" height="15.0" fill="rgb(210,23,5)" rx="2" ry="2" />
<text  x="1185.04" y="335.5" ></text>
</g>
<g >
<title>__schedule (4,351 samples, 0.04%)</title><rect x="1157.9" y="213" width="0.4" height="15.0" fill="rgb(227,103,24)" rx="2" ry="2" />
<text  x="1160.87" y="223.5" ></text>
</g>
<g >
<title>do_syscall_64 (137,878 samples, 1.20%)</title><rect x="1158.3" y="245" width="14.2" height="15.0" fill="rgb(209,20,4)" rx="2" ry="2" />
<text  x="1161.31" y="255.5" ></text>
</g>
<g >
<title>__do_fault (101,829 samples, 0.89%)</title><rect x="10.1" y="197" width="10.5" height="15.0" fill="rgb(221,74,17)" rx="2" ry="2" />
<text  x="13.11" y="207.5" ></text>
</g>
<g >
<title>entry_SYSCALL_64 (4,351 samples, 0.04%)</title><rect x="1157.9" y="309" width="0.4" height="15.0" fill="rgb(239,156,37)" rx="2" ry="2" />
<text  x="1160.87" y="319.5" ></text>
</g>
<g >
<title>tt::chat::server::EpollServer::handle_new_connection (170,038 samples, 1.48%)</title><rect x="1172.5" y="357" width="17.5" height="15.0" fill="rgb(250,207,49)" rx="2" ry="2" />
<text  x="1175.50" y="367.5" ></text>
</g>
<g >
<title>__alloc_skb (64,854 samples, 0.57%)</title><rect x="1165.8" y="149" width="6.7" height="15.0" fill="rgb(226,100,23)" rx="2" ry="2" />
<text  x="1168.83" y="159.5" ></text>
</g>
<g >
<title>tt::chat::server::EpollServer::broadcast_to_channel (137,878 samples, 1.20%)</title><rect x="1158.3" y="341" width="14.2" height="15.0" fill="rgb(218,63,15)" rx="2" ry="2" />
<text  x="1161.31" y="351.5" ></text>
</g>
<g >
<title>asm_sysvec_apic_timer_interrupt (83,429 samples, 0.73%)</title><rect x="1149.3" y="309" width="8.6" height="15.0" fill="rgb(232,127,30)" rx="2" ry="2" />
<text  x="1152.28" y="319.5" ></text>
</g>
<g >
<title>do_huge_pmd_anonymous_page (10,968,267 samples, 95.65%)</title><rect x="20.6" y="277" width="1128.7" height="15.0" fill="rgb(242,172,41)" rx="2" ry="2" />
<text  x="23.59" y="287.5" >do_huge_pmd_anonymous_page</text>
</g>
<g >
<title>schedule (77,342 samples, 0.67%)</title><rect x="1182.0" y="101" width="8.0" height="15.0" fill="rgb(254,229,54)" rx="2" ry="2" />
<text  x="1185.04" y="111.5" ></text>
</g>
<g >
<title>all (11,466,832 samples, 100%)</title><rect x="10.0" y="469" width="1180.0" height="15.0" fill="rgb(213,39,9)" rx="2" ry="2" />
<text  x="13.00" y="479.5" ></text>
</g>
<g >
<title>__handle_mm_fault (10,968,267 samples, 95.65%)</title><rect x="20.6" y="293" width="1128.7" height="15.0" fill="rgb(207,9,2)" rx="2" ry="2" />
<text  x="23.59" y="303.5" >__handle_mm_fault</text>
</g>
<g >
<title>__libc_start_main (11,363,963 samples, 99.10%)</title><rect x="20.6" y="421" width="1169.4" height="15.0" fill="rgb(236,142,34)" rx="2" ry="2" />
<text  x="23.59" y="431.5" >__libc_start_main</text>
</g>
<g >
<title>__irq_exit_rcu (83,429 samples, 0.73%)</title><rect x="1149.3" y="277" width="8.6" height="15.0" fill="rgb(227,101,24)" rx="2" ry="2" />
<text  x="1152.28" y="287.5" ></text>
</g>
<g >
<title>entry_SYSCALL_64 (137,878 samples, 1.20%)</title><rect x="1158.3" y="261" width="14.2" height="15.0" fill="rgb(239,156,37)" rx="2" ry="2" />
<text  x="1161.31" y="271.5" ></text>
</g>
<g >
<title>elf_load (101,829 samples, 0.89%)</title><rect x="10.1" y="325" width="10.5" height="15.0" fill="rgb(253,223,53)" rx="2" ry="2" />
<text  x="13.11" y="335.5" ></text>
</g>
<g >
<title>do_user_addr_fault (101,829 samples, 0.89%)</title><rect x="10.1" y="261" width="10.5" height="15.0" fill="rgb(228,108,25)" rx="2" ry="2" />
<text  x="13.11" y="271.5" ></text>
</g>
<g >
<title>prep_new_page (10,968,267 samples, 95.65%)</title><rect x="20.6" y="181" width="1128.7" height="15.0" fill="rgb(250,209,50)" rx="2" ry="2" />
<text  x="23.59" y="191.5" >prep_new_page</text>
</g>
<g >
<title>entry_SYSCALL_64 (101,829 samples, 0.89%)</title><rect x="10.1" y="421" width="10.5" height="15.0" fill="rgb(239,156,37)" rx="2" ry="2" />
<text  x="13.11" y="431.5" ></text>
</g>
<g >
<title>kmem_cache_alloc_node_noprof (64,854 samples, 0.57%)</title><rect x="1165.8" y="117" width="6.7" height="15.0" fill="rgb(208,17,4)" rx="2" ry="2" />
<text  x="1168.83" y="127.5" ></text>
</g>
<g >
<title>entry_SYSCALL_64 (1,040 samples, 0.01%)</title><rect x="10.0" y="421" width="0.1" height="15.0" fill="rgb(239,156,37)" rx="2" ry="2" />
<text  x="13.00" y="431.5" ></text>
</g>
<g >
<title>kmalloc_reserve (64,854 samples, 0.57%)</title><rect x="1165.8" y="133" width="6.7" height="15.0" fill="rgb(240,163,39)" rx="2" ry="2" />
<text  x="1168.83" y="143.5" ></text>
</g>
<g >
<title>pick_next_task_fair (77,342 samples, 0.67%)</title><rect x="1182.0" y="53" width="8.0" height="15.0" fill="rgb(242,170,40)" rx="2" ry="2" />
<text  x="1185.04" y="63.5" ></text>
</g>
<g >
<title>handle_softirqs (83,429 samples, 0.73%)</title><rect x="1149.3" y="261" width="8.6" height="15.0" fill="rgb(238,156,37)" rx="2" ry="2" />
<text  x="1152.28" y="271.5" ></text>
</g>
<g >
<title>__handle_mm_fault (101,829 samples, 0.89%)</title><rect x="10.1" y="229" width="10.5" height="15.0" fill="rgb(207,9,2)" rx="2" ry="2" />
<text  x="13.11" y="239.5" ></text>
</g>
<g >
<title>_IO_file_write (77,342 samples, 0.67%)</title><rect x="1182.0" y="213" width="8.0" height="15.0" fill="rgb(218,59,14)" rx="2" ry="2" />
<text  x="1185.04" y="223.5" ></text>
</g>
<g >
<title>__x64_sys_sendto (137,878 samples, 1.20%)</title><rect x="1158.3" y="229" width="14.2" height="15.0" fill="rgb(213,37,8)" rx="2" ry="2" />
<text  x="1161.31" y="239.5" ></text>
</g>
<g >
<title>__x64_sys_execve (1,040 samples, 0.01%)</title><rect x="10.0" y="389" width="0.1" height="15.0" fill="rgb(247,193,46)" rx="2" ry="2" />
<text  x="13.00" y="399.5" ></text>
</g>
<g >
<title>folio_alloc_mpol_noprof (10,968,267 samples, 95.65%)</title><rect x="20.6" y="245" width="1128.7" height="15.0" fill="rgb(219,64,15)" rx="2" ry="2" />
<text  x="23.59" y="255.5" >folio_alloc_mpol_noprof</text>
</g>
<g >
<title>exc_page_fault (101,829 samples, 0.89%)</title><rect x="10.1" y="277" width="10.5" height="15.0" fill="rgb(212,35,8)" rx="2" ry="2" />
<text  x="13.11" y="287.5" ></text>
</g>
<g >
<title>ctx_resched (1,040 samples, 0.01%)</title><rect x="10.0" y="293" width="0.1" height="15.0" fill="rgb(244,180,43)" rx="2" ry="2" />
<text  x="13.00" y="303.5" ></text>
</g>
<g >
<title>[libc.so.6] (77,342 samples, 0.67%)</title><rect x="1182.0" y="165" width="8.0" height="15.0" fill="rgb(223,84,20)" rx="2" ry="2" />
<text  x="1185.04" y="175.5" ></text>
</g>
<g >
<title>merge_sched_in (1,817 samples, 0.02%)</title><rect x="1157.9" y="133" width="0.2" height="15.0" fill="rgb(233,132,31)" rx="2" ry="2" />
<text  x="1160.95" y="143.5" ></text>
</g>
<g >
<title>filemap_fault (101,829 samples, 0.89%)</title><rect x="10.1" y="181" width="10.5" height="15.0" fill="rgb(219,68,16)" rx="2" ry="2" />
<text  x="13.11" y="191.5" ></text>
</g>
<g >
<title>asm_exc_page_fault (10,968,267 samples, 95.65%)</title><rect x="20.6" y="357" width="1128.7" height="15.0" fill="rgb(225,93,22)" rx="2" ry="2" />
<text  x="23.59" y="367.5" >asm_exc_page_fault</text>
</g>
<g >
<title>clear_page_rep (10,968,267 samples, 95.65%)</title><rect x="20.6" y="165" width="1128.7" height="15.0" fill="rgb(253,221,52)" rx="2" ry="2" />
<text  x="23.59" y="175.5" >clear_page_rep</text>
</g>
<g >
<title>[libc.so.6] (137,878 samples, 1.20%)</title><rect x="1158.3" y="293" width="14.2" height="15.0" fill="rgb(223,84,20)" rx="2" ry="2" />
<text  x="1161.31" y="303.5" ></text>
</g>
<g >
<title>_start (11,363,963 samples, 99.10%)</title><rect x="20.6" y="437" width="1169.4" height="15.0" fill="rgb(245,185,44)" rx="2" ry="2" />
<text  x="23.59" y="447.5" >_start</text>
</g>
<g >
<title>perf-exec (1,040 samples, 0.01%)</title><rect x="10.0" y="453" width="0.1" height="15.0" fill="rgb(231,123,29)" rx="2" ry="2" />
<text  x="13.00" y="463.5" ></text>
</g>
<g >
<title>exc_page_fault (10,968,267 samples, 95.65%)</title><rect x="20.6" y="341" width="1128.7" height="15.0" fill="rgb(212,35,8)" rx="2" ry="2" />
<text  x="23.59" y="351.5" >exc_page_fault</text>
</g>
<g >
<title>[unknown] (101,829 samples, 0.89%)</title><rect x="10.1" y="437" width="10.5" height="15.0" fill="rgb(210,24,5)" rx="2" ry="2" />
<text  x="13.11" y="447.5" ></text>
</g>
<g >
<title>load_elf_binary (101,829 samples, 0.89%)</title><rect x="10.1" y="341" width="10.5" height="15.0" fill="rgb(223,83,20)" rx="2" ry="2" />
<text  x="13.11" y="351.5" ></text>
</g>
<g >
<title>_IO_file_xsputn (77,342 samples, 0.67%)</title><rect x="1182.0" y="261" width="8.0" height="15.0" fill="rgb(245,188,45)" rx="2" ry="2" />
<text  x="1185.04" y="271.5" ></text>
</g>
<g >
<title>tcp_write_xmit (73,024 samples, 0.64%)</title><rect x="1158.3" y="149" width="7.5" height="15.0" fill="rgb(231,122,29)" rx="2" ry="2" />
<text  x="1161.31" y="159.5" ></text>
</g>
<g >
<title>__asan_stack_malloc_3 (10,968,267 samples, 95.65%)</title><rect x="20.6" y="373" width="1128.7" height="15.0" fill="rgb(226,99,23)" rx="2" ry="2" />
<text  x="23.59" y="383.5" >__asan_stack_malloc_3</text>
</g>
<g >
<title>__sys_sendto (137,878 samples, 1.20%)</title><rect x="1158.3" y="213" width="14.2" height="15.0" fill="rgb(236,146,34)" rx="2" ry="2" />
<text  x="1161.31" y="223.5" ></text>
</g>
<g >
<title>tcp_sendmsg_locked (137,878 samples, 1.20%)</title><rect x="1158.3" y="181" width="14.2" height="15.0" fill="rgb(215,48,11)" rx="2" ry="2" />
<text  x="1161.31" y="191.5" ></text>
</g>
<g >
<title>vma_alloc_folio_noprof (10,968,267 samples, 95.65%)</title><rect x="20.6" y="261" width="1128.7" height="15.0" fill="rgb(218,61,14)" rx="2" ry="2" />
<text  x="23.59" y="271.5" >vma_alloc_folio_noprof</text>
</g>
<g >
<title>finish_task_switch.isra.0 (4,351 samples, 0.04%)</title><rect x="1157.9" y="197" width="0.4" height="15.0" fill="rgb(246,189,45)" rx="2" ry="2" />
<text  x="1160.87" y="207.5" ></text>
</g>
<g >
<title>__dev_queue_xmit (73,024 samples, 0.64%)</title><rect x="1158.3" y="85" width="7.5" height="15.0" fill="rgb(244,182,43)" rx="2" ry="2" />
<text  x="1161.31" y="95.5" ></text>
</g>
<g >
<title>entry_SYSCALL_64 (77,342 samples, 0.67%)</title><rect x="1182.0" y="149" width="8.0" height="15.0" fill="rgb(239,156,37)" rx="2" ry="2" />
<text  x="1185.04" y="159.5" ></text>
</g>
<g >
<title>spdlog::sinks::ansicolor_sink&lt;spdlog::details::console_mutex&gt;::log (77,342 samples, 0.67%)</title><rect x="1182.0" y="309" width="8.0" height="15.0" fill="rgb(224,87,20)" rx="2" ry="2" />
<text  x="1185.04" y="319.5" ></text>
</g>
<g >
<title>[libc.so.6] (87,780 samples, 0.77%)</title><rect x="1149.3" y="341" width="9.0" height="15.0" fill="rgb(223,84,20)" rx="2" ry="2" />
<text  x="1152.28" y="351.5" ></text>
</g>
<g >
<title>do_syscall_64 (77,342 samples, 0.67%)</title><rect x="1182.0" y="133" width="8.0" height="15.0" fill="rgb(209,20,4)" rx="2" ry="2" />
<text  x="1185.04" y="143.5" ></text>
</g>
<g >
<title>_IO_do_write (77,342 samples, 0.67%)</title><rect x="1182.0" y="245" width="8.0" height="15.0" fill="rgb(242,171,41)" rx="2" ry="2" />
<text  x="1185.04" y="255.5" ></text>
</g>
<g >
<title>do_fault (101,829 samples, 0.89%)</title><rect x="10.1" y="213" width="10.5" height="15.0" fill="rgb(248,200,47)" rx="2" ry="2" />
<text  x="13.11" y="223.5" ></text>
</g>
<g >
<title>get_page_from_freelist (10,968,267 samples, 95.65%)</title><rect x="20.6" y="197" width="1128.7" height="15.0" fill="rgb(252,218,52)" rx="2" ry="2" />
<text  x="23.59" y="207.5" >get_page_from_freelist</text>
</g>
<g >
<title>asm_exc_page_fault (101,829 samples, 0.89%)</title><rect x="10.1" y="293" width="10.5" height="15.0" fill="rgb(225,93,22)" rx="2" ry="2" />
<text  x="13.11" y="303.5" ></text>
</g>
<g >
<title>[libc.so.6] (11,363,963 samples, 99.10%)</title><rect x="20.6" y="405" width="1169.4" height="15.0" fill="rgb(223,84,20)" rx="2" ry="2" />
<text  x="23.59" y="415.5" >[libc.so.6]</text>
</g>
<g >
<title>epoll_wait (87,780 samples, 0.77%)</title><rect x="1149.3" y="357" width="9.0" height="15.0" fill="rgb(238,154,36)" rx="2" ry="2" />
<text  x="1152.28" y="367.5" ></text>
</g>
<g >
<title>__filemap_get_folio (101,829 samples, 0.89%)</title><rect x="10.1" y="165" width="10.5" height="15.0" fill="rgb(231,120,28)" rx="2" ry="2" />
<text  x="13.11" y="175.5" ></text>
</g>
<g >
<title>tcp_stream_alloc_skb (64,854 samples, 0.57%)</title><rect x="1165.8" y="165" width="6.7" height="15.0" fill="rgb(252,218,52)" rx="2" ry="2" />
<text  x="1168.83" y="175.5" ></text>
</g>
<g >
<title>__pick_next_task (77,342 samples, 0.67%)</title><rect x="1182.0" y="69" width="8.0" height="15.0" fill="rgb(228,108,25)" rx="2" ry="2" />
<text  x="1185.04" y="79.5" ></text>
</g>
<g >
<title>bprm_execve (1,040 samples, 0.01%)</title><rect x="10.0" y="357" width="0.1" height="15.0" fill="rgb(218,61,14)" rx="2" ry="2" />
<text  x="13.00" y="367.5" ></text>
</g>
<g >
<title>[libc.so.6] (137,878 samples, 1.20%)</title><rect x="1158.3" y="277" width="14.2" height="15.0" fill="rgb(223,84,20)" rx="2" ry="2" />
<text  x="1161.31" y="287.5" ></text>
</g>
<g >
<title>__x64_sys_epoll_wait (4,351 samples, 0.04%)</title><rect x="1157.9" y="277" width="0.4" height="15.0" fill="rgb(206,6,1)" rx="2" ry="2" />
<text  x="1160.87" y="287.5" ></text>
</g>
<g >
<title>ctx_sched_in (1,040 samples, 0.01%)</title><rect x="10.0" y="277" width="0.1" height="15.0" fill="rgb(230,117,28)" rx="2" ry="2" />
<text  x="13.00" y="287.5" ></text>
</g>
<g >
<title>___interceptor_send (137,878 samples, 1.20%)</title><rect x="1158.3" y="325" width="14.2" height="15.0" fill="rgb(211,29,7)" rx="2" ry="2" />
<text  x="1161.31" y="335.5" ></text>
</g>
<g >
<title>void spdlog::logger::log_&lt;std::__cxx11::basic_string&lt;char, std::char_traits&lt;char&gt;, std::allocator&lt;char&gt; &gt;&amp;&gt; (77,342 samples, 0.67%)</title><rect x="1182.0" y="341" width="8.0" height="15.0" fill="rgb(215,50,12)" rx="2" ry="2" />
<text  x="1185.04" y="351.5" ></text>
</g>
<g >
<title>bprm_execve (101,829 samples, 0.89%)</title><rect x="10.1" y="357" width="10.5" height="15.0" fill="rgb(218,61,14)" rx="2" ry="2" />
<text  x="13.11" y="367.5" ></text>
</g>
<g >
<title>__perf_event_task_sched_in (4,351 samples, 0.04%)</title><rect x="1157.9" y="181" width="0.4" height="15.0" fill="rgb(231,121,29)" rx="2" ry="2" />
<text  x="1160.87" y="191.5" ></text>
</g>
<g >
<title>load_elf_binary (1,040 samples, 0.01%)</title><rect x="10.0" y="341" width="0.1" height="15.0" fill="rgb(223,83,20)" rx="2" ry="2" />
<text  x="13.00" y="351.5" ></text>
</g>
<g >
<title>tt::chat::server::EpollServer::handle_client_data (137,878 samples, 1.20%)</title><rect x="1158.3" y="357" width="14.2" height="15.0" fill="rgb(230,117,28)" rx="2" ry="2" />
<text  x="1161.31" y="367.5" ></text>
</g>
<g >
<title>perf_event_exec (1,040 samples, 0.01%)</title><rect x="10.0" y="309" width="0.1" height="15.0" fill="rgb(218,60,14)" rx="2" ry="2" />
<text  x="13.00" y="319.5" ></text>
</g>
<g >
<title>[libc.so.6] (77,342 samples, 0.67%)</title><rect x="1182.0" y="229" width="8.0" height="15.0" fill="rgb(223,84,20)" rx="2" ry="2" />
<text  x="1185.04" y="239.5" ></text>
</g>
<g >
<title>schedule (4,351 samples, 0.04%)</title><rect x="1157.9" y="229" width="0.4" height="15.0" fill="rgb(254,229,54)" rx="2" ry="2" />
<text  x="1160.87" y="239.5" ></text>
</g>
<g >
<title>handle_mm_fault (101,829 samples, 0.89%)</title><rect x="10.1" y="245" width="10.5" height="15.0" fill="rgb(234,135,32)" rx="2" ry="2" />
<text  x="13.11" y="255.5" ></text>
</g>
<g >
<title>syscall_exit_to_user_mode (77,342 samples, 0.67%)</title><rect x="1182.0" y="117" width="8.0" height="15.0" fill="rgb(251,211,50)" rx="2" ry="2" />
<text  x="1185.04" y="127.5" ></text>
</g>
<g >
<title>__local_bh_enable_ip (73,024 samples, 0.64%)</title><rect x="1158.3" y="69" width="7.5" height="15.0" fill="rgb(237,147,35)" rx="2" ry="2" />
<text  x="1161.31" y="79.5" ></text>
</g>
<g >
<title>do_syscall_64 (1,040 samples, 0.01%)</title><rect x="10.0" y="405" width="0.1" height="15.0" fill="rgb(209,20,4)" rx="2" ry="2" />
<text  x="13.00" y="415.5" ></text>
</g>
<g >
<title>handle_mm_fault (10,968,267 samples, 95.65%)</title><rect x="20.6" y="309" width="1128.7" height="15.0" fill="rgb(234,135,32)" rx="2" ry="2" />
<text  x="23.59" y="319.5" >handle_mm_fault</text>
</g>
<g >
<title>ctx_sched_in (4,351 samples, 0.04%)</title><rect x="1157.9" y="165" width="0.4" height="15.0" fill="rgb(230,117,28)" rx="2" ry="2" />
<text  x="1160.87" y="175.5" ></text>
</g>
<g >
<title>write (77,342 samples, 0.67%)</title><rect x="1182.0" y="197" width="8.0" height="15.0" fill="rgb(228,107,25)" rx="2" ry="2" />
<text  x="1185.04" y="207.5" ></text>
</g>
<g >
<title>do_syscall_64 (4,351 samples, 0.04%)</title><rect x="1157.9" y="293" width="0.4" height="15.0" fill="rgb(209,20,4)" rx="2" ry="2" />
<text  x="1160.87" y="303.5" ></text>
</g>
<g >
<title>native_sched_clock (83,429 samples, 0.73%)</title><rect x="1149.3" y="197" width="8.6" height="15.0" fill="rgb(218,64,15)" rx="2" ry="2" />
<text  x="1152.28" y="207.5" ></text>
</g>
<g >
<title>rep_stos_alternative (101,829 samples, 0.89%)</title><rect x="10.1" y="309" width="10.5" height="15.0" fill="rgb(229,113,27)" rx="2" ry="2" />
<text  x="13.11" y="319.5" ></text>
</g>
<g >
<title>sched_clock (83,429 samples, 0.73%)</title><rect x="1149.3" y="213" width="8.6" height="15.0" fill="rgb(212,33,7)" rx="2" ry="2" />
<text  x="1152.28" y="223.5" ></text>
</g>
<g >
<title>tcp_sendmsg (137,878 samples, 1.20%)</title><rect x="1158.3" y="197" width="14.2" height="15.0" fill="rgb(223,83,19)" rx="2" ry="2" />
<text  x="1161.31" y="207.5" ></text>
</g>
<g >
<title>tt::chat::server::EpollServer::run (395,696 samples, 3.45%)</title><rect x="1149.3" y="373" width="40.7" height="15.0" fill="rgb(236,145,34)" rx="2" ry="2" />
<text  x="1152.28" y="383.5" >tt:..</text>
</g>
<g >
<title>do_execveat_common.isra.0 (101,829 samples, 0.89%)</title><rect x="10.1" y="373" width="10.5" height="15.0" fill="rgb(231,123,29)" rx="2" ry="2" />
<text  x="13.11" y="383.5" ></text>
</g>
<g >
<title>__ip_queue_xmit (73,024 samples, 0.64%)</title><rect x="1158.3" y="117" width="7.5" height="15.0" fill="rgb(253,223,53)" rx="2" ry="2" />
<text  x="1161.31" y="127.5" ></text>
</g>
<g >
<title>__tcp_transmit_skb (73,024 samples, 0.64%)</title><rect x="1158.3" y="133" width="7.5" height="15.0" fill="rgb(231,122,29)" rx="2" ry="2" />
<text  x="1161.31" y="143.5" ></text>
</g>
<g >
<title>sched_clock_cpu (83,429 samples, 0.73%)</title><rect x="1149.3" y="229" width="8.6" height="15.0" fill="rgb(229,113,27)" rx="2" ry="2" />
<text  x="1152.28" y="239.5" ></text>
</g>
</g>
</svg>
